<svg xmlns="http://www.w3.org/2000/svg" xmlns:xlink="http://www.w3.org/1999/xlink" width="1920" zoomAndPan="magnify" viewBox="0 0 1440 809.999993" height="1080" preserveAspectRatio="xMidYMid meet" version="1.0"><path fill="#19082f" d="M 0 156 L 130.5 237 L 262.5 187.5 L 393 196.5 L 523.5 244.5 L 654 244.5 L 786 252 L 916.5 261 L 1047 204 L 1177.5 156 L 1309.5 187.5 L 1440 220.5 L 1440 0 L 0 0 Z M 0 156 " fill-opacity="1" fill-rule="nonzero"/><path fill="#01163b" d="M 0 277.5 L 130.5 292.5 L 262.5 318 L 393 325.5 L 523.5 309 L 654 358.5 L 786 349.5 L 916.5 333 L 1047 277.5 L 1177.5 220.5 L 1309.5 285 L 1440 285 L 1440 217.5 L 1309.5 184.5 L 1177.5 153 L 1047 201 L 916.5 258 L 786 249 L 654 241.5 L 523.5 241.5 L 393 193.5 L 262.5 184.5 L 130.5 234 L 0 153 Z M 0 277.5 " fill-opacity="1" fill-rule="nonzero"/><path fill="#022345" d="M 0 342 L 130.5 373.5 L 262.5 430.5 L 393 463.5 L 523.5 454.5 L 654 504 L 786 447 L 916.5 423 L 1047 390 L 1177.5 382.5 L 1309.5 430.5 L 1440 382.5 L 1440 282 L 1309.5 282 L 1177.5 217.5 L 1047 274.5 L 916.5 330 L 786 346.5 L 654 355.5 L 523.5 306 L 393 322.5 L 262.5 315 L 130.5 289.5 L 0 274.5 Z M 0 342 " fill-opacity="1" fill-rule="nonzero"/><path fill="#0c1333" d="M 0 535.5 L 130.5 592.5 L 262.5 520.5 L 393 552 L 523.5 642 L 654 673.5 L 786 544.5 L 916.5 585 L 1047 528 L 1177.5 568.5 L 1309.5 552 L 1440 601.5 L 1440 379.5 L 1309.5 427.5 L 1177.5 379.5 L 1047 387 L 916.5 420 L 786 444 L 654 501 L 523.5 451.5 L 393 460.5 L 262.5 427.5 L 130.5 370.5 L 0 339 Z M 0 535.5 " fill-opacity="1" fill-rule="nonzero"/><path fill="#040221" d="M 0 811.5 L 1440 811.5 L 1440 598.5 L 1309.5 549 L 1177.5 565.5 L 1047 525 L 916.5 582 L 786 541.5 L 654 670.5 L 523.5 639 L 393 549 L 262.5 517.5 L 130.5 589.5 L 0 532.5 Z M 0 811.5 " fill-opacity="1" fill-rule="nonzero"/></svg>